<?xml version="1.0" encoding="UTF-8" standalone="no"?>
<!DOCTYPE svg PUBLIC "-//W3C//DTD SVG 1.1//EN"
 "http://www.w3.org/Graphics/SVG/1.1/DTD/svg11.dtd">
<!-- Generated by graphviz version 2.40.1 (20161225.0304)
 -->
<!-- Title: dependencies Pages: 1 -->
<svg width="3482pt" height="284pt"
 viewBox="0.00 0.00 3482.00 284.00" xmlns="http://www.w3.org/2000/svg" xmlns:xlink="http://www.w3.org/1999/xlink">
<g id="graph0" class="graph" transform="scale(1 1) rotate(0) translate(4 280)">
<title>dependencies</title>
<polygon fill="#ffffff" stroke="transparent" points="-4,4 -4,-280 3478,-280 3478,4 -4,4"/>
<text text-anchor="start" x="1716.0091" y="-42.4" font-family="sans-serif" font-weight="bold" font-size="14.00" fill="#000000">Legend</text>
<polygon fill="#ffffb3" stroke="transparent" points="1503,-10 1503,-30 1523,-30 1523,-10 1503,-10"/>
<text text-anchor="start" x="1526.629" y="-15.4" font-family="sans-serif" font-size="14.00" fill="#000000"> &#160;Declarations</text>
<polygon fill="#8dd3c7" stroke="transparent" points="1616,-10 1616,-30 1636,-30 1636,-10 1616,-10"/>
<text text-anchor="start" x="1639.7251" y="-15.4" font-family="sans-serif" font-size="14.00" fill="#000000"> &#160;Module</text>
<polygon fill="#80b1d3" stroke="transparent" points="1702,-10 1702,-30 1722,-30 1722,-10 1702,-10"/>
<text text-anchor="start" x="1725.7812" y="-15.4" font-family="sans-serif" font-size="14.00" fill="#000000"> &#160;Bootstrap</text>
<polygon fill="#fdb462" stroke="transparent" points="1799,-10 1799,-30 1819,-30 1819,-10 1799,-10"/>
<text text-anchor="start" x="1822.6732" y="-15.4" font-family="sans-serif" font-size="14.00" fill="#000000"> &#160;Providers</text>
<polygon fill="#fb8072" stroke="transparent" points="1895,-10 1895,-30 1915,-30 1915,-10 1895,-10"/>
<text text-anchor="start" x="1918.7258" y="-15.4" font-family="sans-serif" font-size="14.00" fill="#000000"> &#160;Exports</text>
<g id="clust1" class="cluster">
<title>cluster_AppModule</title>
<polygon fill="none" stroke="#000000" stroke-dasharray="1,5" points="8,-70 8,-268 3466,-268 3466,-70 8,-70"/>
</g>
<g id="clust2" class="cluster">
<title>cluster_AppModule_declarations</title>
<polygon fill="none" stroke="#000000" points="1755,-78 1755,-130 3458,-130 3458,-78 1755,-78"/>
</g>
<g id="clust15" class="cluster">
<title>cluster_AppModule_imports</title>
<polygon fill="none" stroke="#000000" points="16,-78 16,-130 1747,-130 1747,-78 16,-78"/>
</g>
<g id="clust17" class="cluster">
<title>cluster_AppModule_bootstrap</title>
<polygon fill="none" stroke="#000000" points="1762,-208 1762,-260 1886,-260 1886,-208 1762,-208"/>
</g>
<!-- AppComponent -->
<g id="node1" class="node">
<title>AppComponent</title>
<polygon fill="#ffffb3" stroke="#000000" points="3449.9399,-122 3344.0601,-122 3344.0601,-86 3449.9399,-86 3449.9399,-122"/>
<text text-anchor="middle" x="3397" y="-99.8" font-family="Times,serif" font-size="14.00" fill="#000000">AppComponent</text>
</g>
<!-- AppModule -->
<g id="node13" class="node">
<title>AppModule</title>
<polygon fill="#8dd3c7" stroke="#000000" points="1865.6571,-187 1862.6571,-191 1841.6571,-191 1838.6571,-187 1782.3429,-187 1782.3429,-151 1865.6571,-151 1865.6571,-187"/>
<text text-anchor="middle" x="1824" y="-164.8" font-family="Times,serif" font-size="14.00" fill="#000000">AppModule</text>
</g>
<!-- AppComponent&#45;&gt;AppModule -->
<g id="edge1" class="edge">
<title>AppComponent&#45;&gt;AppModule</title>
<path fill="none" stroke="#000000" d="M3397,-122.1532C3397,-145.7566 3397,-184 3397,-184 3397,-184 1875.6688,-184 1875.6688,-184"/>
<polygon fill="#000000" stroke="#000000" points="1875.6688,-180.5001 1865.6688,-184 1875.6687,-187.5001 1875.6688,-180.5001"/>
</g>
<!-- FlagsComponent -->
<g id="node2" class="node">
<title>FlagsComponent</title>
<polygon fill="#ffffb3" stroke="#000000" points="3325.6653,-122 3214.3347,-122 3214.3347,-86 3325.6653,-86 3325.6653,-122"/>
<text text-anchor="middle" x="3270" y="-99.8" font-family="Times,serif" font-size="14.00" fill="#000000">FlagsComponent</text>
</g>
<!-- FlagsComponent&#45;&gt;AppModule -->
<g id="edge2" class="edge">
<title>FlagsComponent&#45;&gt;AppModule</title>
<path fill="none" stroke="#000000" d="M3270,-122.2479C3270,-145.0179 3270,-181 3270,-181 3270,-181 1875.7165,-181 1875.7165,-181"/>
<polygon fill="#000000" stroke="#000000" points="1875.7166,-177.5001 1865.7165,-181 1875.7165,-184.5001 1875.7166,-177.5001"/>
</g>
<!-- EntryLogsComponent -->
<g id="node3" class="node">
<title>EntryLogsComponent</title>
<polygon fill="#ffffb3" stroke="#000000" points="3196.4341,-122 3055.5659,-122 3055.5659,-86 3196.4341,-86 3196.4341,-122"/>
<text text-anchor="middle" x="3126" y="-99.8" font-family="Times,serif" font-size="14.00" fill="#000000">EntryLogsComponent</text>
</g>
<!-- EntryLogsComponent&#45;&gt;AppModule -->
<g id="edge3" class="edge">
<title>EntryLogsComponent&#45;&gt;AppModule</title>
<path fill="none" stroke="#000000" d="M3126,-122.2921C3126,-144.2057 3126,-178 3126,-178 3126,-178 1875.8452,-178 1875.8452,-178"/>
<polygon fill="#000000" stroke="#000000" points="1875.8453,-174.5001 1865.8452,-178 1875.8452,-181.5001 1875.8453,-174.5001"/>
</g>
<!-- EntriesComponent -->
<g id="node4" class="node">
<title>EntriesComponent</title>
<polygon fill="#ffffb3" stroke="#000000" points="3037.486,-122 2916.514,-122 2916.514,-86 3037.486,-86 3037.486,-122"/>
<text text-anchor="middle" x="2977" y="-99.8" font-family="Times,serif" font-size="14.00" fill="#000000">EntriesComponent</text>
</g>
<!-- EntriesComponent&#45;&gt;AppModule -->
<g id="edge4" class="edge">
<title>EntriesComponent&#45;&gt;AppModule</title>
<path fill="none" stroke="#000000" d="M2977,-122.2843C2977,-143.3211 2977,-175 2977,-175 2977,-175 1875.717,-175 1875.717,-175"/>
<polygon fill="#000000" stroke="#000000" points="1875.7171,-171.5001 1865.717,-175 1875.717,-178.5001 1875.7171,-171.5001"/>
</g>
<!-- NavbarComponent -->
<g id="node5" class="node">
<title>NavbarComponent</title>
<polygon fill="#ffffb3" stroke="#000000" points="2898.0297,-122 2775.9703,-122 2775.9703,-86 2898.0297,-86 2898.0297,-122"/>
<text text-anchor="middle" x="2837" y="-99.8" font-family="Times,serif" font-size="14.00" fill="#000000">NavbarComponent</text>
</g>
<!-- NavbarComponent&#45;&gt;AppModule -->
<g id="edge5" class="edge">
<title>NavbarComponent&#45;&gt;AppModule</title>
<path fill="none" stroke="#000000" d="M2837,-122.2228C2837,-142.3652 2837,-172 2837,-172 2837,-172 1875.918,-172 1875.918,-172"/>
<polygon fill="#000000" stroke="#000000" points="1875.918,-168.5001 1865.918,-172 1875.9179,-175.5001 1875.918,-168.5001"/>
</g>
<!-- InstructionsComponent -->
<g id="node6" class="node">
<title>InstructionsComponent</title>
<polygon fill="#ffffb3" stroke="#000000" points="2757.9298,-122 2610.0702,-122 2610.0702,-86 2757.9298,-86 2757.9298,-122"/>
<text text-anchor="middle" x="2684" y="-99.8" font-family="Times,serif" font-size="14.00" fill="#000000">InstructionsComponent</text>
</g>
<!-- InstructionsComponent&#45;&gt;AppModule -->
<g id="edge6" class="edge">
<title>InstructionsComponent&#45;&gt;AppModule</title>
<path fill="none" stroke="#000000" d="M2684,-122.1061C2684,-141.3391 2684,-169 2684,-169 2684,-169 1875.7702,-169 1875.7702,-169"/>
<polygon fill="#000000" stroke="#000000" points="1875.7703,-165.5001 1865.7702,-169 1875.7702,-172.5001 1875.7703,-165.5001"/>
</g>
<!-- SelectionComponent -->
<g id="node7" class="node">
<title>SelectionComponent</title>
<polygon fill="#ffffb3" stroke="#000000" points="2592.9313,-122 2459.0687,-122 2459.0687,-86 2592.9313,-86 2592.9313,-122"/>
<text text-anchor="middle" x="2526" y="-99.8" font-family="Times,serif" font-size="14.00" fill="#000000">SelectionComponent</text>
</g>
<!-- SelectionComponent&#45;&gt;AppModule -->
<g id="edge7" class="edge">
<title>SelectionComponent&#45;&gt;AppModule</title>
<path fill="none" stroke="#000000" d="M2526,-122.2667C2526,-140.5552 2526,-166 2526,-166 2526,-166 1875.811,-166 1875.811,-166"/>
<polygon fill="#000000" stroke="#000000" points="1875.811,-162.5001 1865.811,-166 1875.811,-169.5001 1875.811,-162.5001"/>
</g>
<!-- ExitLogsComponent -->
<g id="node8" class="node">
<title>ExitLogsComponent</title>
<polygon fill="#ffffb3" stroke="#000000" points="2441.1638,-122 2308.8362,-122 2308.8362,-86 2441.1638,-86 2441.1638,-122"/>
<text text-anchor="middle" x="2375" y="-99.8" font-family="Times,serif" font-size="14.00" fill="#000000">ExitLogsComponent</text>
</g>
<!-- ExitLogsComponent&#45;&gt;AppModule -->
<g id="edge8" class="edge">
<title>ExitLogsComponent&#45;&gt;AppModule</title>
<path fill="none" stroke="#000000" d="M2375,-122.0225C2375,-139.3734 2375,-163 2375,-163 2375,-163 1875.8668,-163 1875.8668,-163"/>
<polygon fill="#000000" stroke="#000000" points="1875.8668,-159.5001 1865.8668,-163 1875.8668,-166.5001 1875.8668,-159.5001"/>
</g>
<!-- ExitiesComponent -->
<g id="node9" class="node">
<title>ExitiesComponent</title>
<polygon fill="#ffffb3" stroke="#000000" points="2291.2162,-122 2170.7838,-122 2170.7838,-86 2291.2162,-86 2291.2162,-122"/>
<text text-anchor="middle" x="2231" y="-99.8" font-family="Times,serif" font-size="14.00" fill="#000000">ExitiesComponent</text>
</g>
<!-- ExitiesComponent&#45;&gt;AppModule -->
<g id="edge9" class="edge">
<title>ExitiesComponent&#45;&gt;AppModule</title>
<path fill="none" stroke="#000000" d="M2231,-122.027C2231,-138.3976 2231,-160 2231,-160 2231,-160 1876.0232,-160 1876.0232,-160"/>
<polygon fill="#000000" stroke="#000000" points="1876.0232,-156.5001 1866.0232,-160 1876.0232,-163.5001 1876.0232,-156.5001"/>
</g>
<!-- QuizComponent -->
<g id="node10" class="node">
<title>QuizComponent</title>
<polygon fill="#ffffb3" stroke="#000000" points="2153.0452,-122 2044.9548,-122 2044.9548,-86 2153.0452,-86 2153.0452,-122"/>
<text text-anchor="middle" x="2099" y="-99.8" font-family="Times,serif" font-size="14.00" fill="#000000">QuizComponent</text>
</g>
<!-- QuizComponent&#45;&gt;AppModule -->
<g id="edge10" class="edge">
<title>QuizComponent&#45;&gt;AppModule</title>
<path fill="none" stroke="#000000" d="M2099,-122.2396C2099,-137.5706 2099,-157 2099,-157 2099,-157 1875.7666,-157 1875.7666,-157"/>
<polygon fill="#000000" stroke="#000000" points="1875.7666,-153.5001 1865.7666,-157 1875.7665,-160.5001 1875.7666,-153.5001"/>
</g>
<!-- NgdragComponent -->
<g id="node11" class="node">
<title>NgdragComponent</title>
<polygon fill="#ffffb3" stroke="#000000" points="2026.8146,-122 1903.1854,-122 1903.1854,-86 2026.8146,-86 2026.8146,-122"/>
<text text-anchor="middle" x="1965" y="-99.8" font-family="Times,serif" font-size="14.00" fill="#000000">NgdragComponent</text>
</g>
<!-- NgdragComponent&#45;&gt;AppModule -->
<g id="edge11" class="edge">
<title>NgdragComponent&#45;&gt;AppModule</title>
<path fill="none" stroke="#000000" d="M1965,-122.0511C1965,-136.373 1965,-154 1965,-154 1965,-154 1875.9229,-154 1875.9229,-154"/>
<polygon fill="#000000" stroke="#000000" points="1875.9229,-150.5001 1865.9229,-154 1875.9229,-157.5001 1875.9229,-150.5001"/>
</g>
<!-- UnidocComponent -->
<g id="node12" class="node">
<title>UnidocComponent</title>
<polygon fill="#ffffb3" stroke="#000000" points="1885.045,-122 1762.955,-122 1762.955,-86 1885.045,-86 1885.045,-122"/>
<text text-anchor="middle" x="1824" y="-99.8" font-family="Times,serif" font-size="14.00" fill="#000000">UnidocComponent</text>
</g>
<!-- UnidocComponent&#45;&gt;AppModule -->
<g id="edge12" class="edge">
<title>UnidocComponent&#45;&gt;AppModule</title>
<path fill="none" stroke="#000000" d="M1824,-122.1061C1824,-122.1061 1824,-140.991 1824,-140.991"/>
<polygon fill="#000000" stroke="#000000" points="1820.5001,-140.9909 1824,-150.991 1827.5001,-140.991 1820.5001,-140.9909"/>
</g>
<!-- AppComponent  -->
<g id="node25" class="node">
<title>AppComponent </title>
<polygon fill="#80b1d3" stroke="#000000" points="1878.439,-252 1769.561,-252 1769.561,-216 1878.439,-216 1878.439,-252"/>
<text text-anchor="middle" x="1824" y="-229.8" font-family="Times,serif" font-size="14.00" fill="#000000">AppComponent </text>
</g>
<!-- AppModule&#45;&gt;AppComponent  -->
<g id="edge24" class="edge">
<title>AppModule&#45;&gt;AppComponent </title>
<path fill="none" stroke="#000000" stroke-dasharray="1,5" d="M1824,-187.1061C1824,-187.1061 1824,-205.991 1824,-205.991"/>
<polygon fill="#000000" stroke="#000000" points="1820.5001,-205.9909 1824,-215.991 1827.5001,-205.991 1820.5001,-205.9909"/>
</g>
<!-- BrowserModule -->
<g id="node14" class="node">
<title>BrowserModule</title>
<polygon fill="#8dd3c7" stroke="#000000" points="1739.4734,-122 1736.4734,-126 1715.4734,-126 1712.4734,-122 1632.5266,-122 1632.5266,-86 1739.4734,-86 1739.4734,-122"/>
<text text-anchor="middle" x="1686" y="-99.8" font-family="Times,serif" font-size="14.00" fill="#000000">BrowserModule</text>
</g>
<!-- BrowserModule&#45;&gt;AppModule -->
<g id="edge13" class="edge">
<title>BrowserModule&#45;&gt;AppModule</title>
<path fill="none" stroke="#000000" d="M1686,-122.0511C1686,-136.373 1686,-154 1686,-154 1686,-154 1772.221,-154 1772.221,-154"/>
<polygon fill="#000000" stroke="#000000" points="1772.221,-157.5001 1782.221,-154 1772.2209,-150.5001 1772.221,-157.5001"/>
</g>
<!-- AppRoutingModule -->
<g id="node15" class="node">
<title>AppRoutingModule</title>
<polygon fill="#8dd3c7" stroke="#000000" points="1614.2744,-122 1611.2744,-126 1590.2744,-126 1587.2744,-122 1485.7256,-122 1485.7256,-86 1614.2744,-86 1614.2744,-122"/>
<text text-anchor="middle" x="1550" y="-99.8" font-family="Times,serif" font-size="14.00" fill="#000000">AppRoutingModule</text>
</g>
<!-- AppRoutingModule&#45;&gt;AppModule -->
<g id="edge14" class="edge">
<title>AppRoutingModule&#45;&gt;AppModule</title>
<path fill="none" stroke="#000000" d="M1550,-122.2396C1550,-137.5706 1550,-157 1550,-157 1550,-157 1772.087,-157 1772.087,-157"/>
<polygon fill="#000000" stroke="#000000" points="1772.0871,-160.5001 1782.087,-157 1772.087,-153.5001 1772.0871,-160.5001"/>
</g>
<!-- AngularFireModule.initializeApp(args) -->
<g id="node16" class="node">
<title>AngularFireModule.initializeApp(args)</title>
<polygon fill="#8dd3c7" stroke="#000000" points="1467.7057,-122 1464.7057,-126 1443.7057,-126 1440.7057,-122 1230.2943,-122 1230.2943,-86 1467.7057,-86 1467.7057,-122"/>
<text text-anchor="middle" x="1349" y="-99.8" font-family="Times,serif" font-size="14.00" fill="#000000">AngularFireModule.initializeApp(args)</text>
</g>
<!-- AngularFireModule.initializeApp(args)&#45;&gt;AppModule -->
<g id="edge15" class="edge">
<title>AngularFireModule.initializeApp(args)&#45;&gt;AppModule</title>
<path fill="none" stroke="#000000" d="M1349,-122.027C1349,-138.3976 1349,-160 1349,-160 1349,-160 1772.2632,-160 1772.2632,-160"/>
<polygon fill="#000000" stroke="#000000" points="1772.2633,-163.5001 1782.2632,-160 1772.2632,-156.5001 1772.2633,-163.5001"/>
</g>
<!-- AngularFirestoreModule -->
<g id="node17" class="node">
<title>AngularFirestoreModule</title>
<polygon fill="#8dd3c7" stroke="#000000" points="1212.6811,-122 1209.6811,-126 1188.6811,-126 1185.6811,-122 1057.3189,-122 1057.3189,-86 1212.6811,-86 1212.6811,-122"/>
<text text-anchor="middle" x="1135" y="-99.8" font-family="Times,serif" font-size="14.00" fill="#000000">AngularFirestoreModule</text>
</g>
<!-- AngularFirestoreModule&#45;&gt;AppModule -->
<g id="edge16" class="edge">
<title>AngularFirestoreModule&#45;&gt;AppModule</title>
<path fill="none" stroke="#000000" d="M1135,-122.0225C1135,-139.3734 1135,-163 1135,-163 1135,-163 1772.1947,-163 1772.1947,-163"/>
<polygon fill="#000000" stroke="#000000" points="1772.1947,-166.5001 1782.1947,-163 1772.1947,-159.5001 1772.1947,-166.5001"/>
</g>
<!-- AngularFireStorageModule -->
<g id="node18" class="node">
<title>AngularFireStorageModule</title>
<polygon fill="#8dd3c7" stroke="#000000" points="1039.2338,-122 1036.2338,-126 1015.2338,-126 1012.2338,-122 868.7662,-122 868.7662,-86 1039.2338,-86 1039.2338,-122"/>
<text text-anchor="middle" x="954" y="-99.8" font-family="Times,serif" font-size="14.00" fill="#000000">AngularFireStorageModule</text>
</g>
<!-- AngularFireStorageModule&#45;&gt;AppModule -->
<g id="edge17" class="edge">
<title>AngularFireStorageModule&#45;&gt;AppModule</title>
<path fill="none" stroke="#000000" d="M954,-122.2667C954,-140.5552 954,-166 954,-166 954,-166 1772.3312,-166 1772.3312,-166"/>
<polygon fill="#000000" stroke="#000000" points="1772.3312,-169.5001 1782.3312,-166 1772.3312,-162.5001 1772.3312,-169.5001"/>
</g>
<!-- HttpClientModule -->
<g id="node19" class="node">
<title>HttpClientModule</title>
<polygon fill="#8dd3c7" stroke="#000000" points="850.1611,-122 847.1611,-126 826.1611,-126 823.1611,-122 731.8389,-122 731.8389,-86 850.1611,-86 850.1611,-122"/>
<text text-anchor="middle" x="791" y="-99.8" font-family="Times,serif" font-size="14.00" fill="#000000">HttpClientModule</text>
</g>
<!-- HttpClientModule&#45;&gt;AppModule -->
<g id="edge18" class="edge">
<title>HttpClientModule&#45;&gt;AppModule</title>
<path fill="none" stroke="#000000" d="M791,-122.1061C791,-141.3391 791,-169 791,-169 791,-169 1772.2258,-169 1772.2258,-169"/>
<polygon fill="#000000" stroke="#000000" points="1772.2258,-172.5001 1782.2258,-169 1772.2257,-165.5001 1772.2258,-172.5001"/>
</g>
<!-- AngularSvgIconModule -->
<g id="node20" class="node">
<title>AngularSvgIconModule</title>
<polygon fill="#8dd3c7" stroke="#000000" points="714.08,-122 711.08,-126 690.08,-126 687.08,-122 561.92,-122 561.92,-86 714.08,-86 714.08,-122"/>
<text text-anchor="middle" x="638" y="-99.8" font-family="Times,serif" font-size="14.00" fill="#000000">AngularSvgIconModule</text>
</g>
<!-- AngularSvgIconModule&#45;&gt;AppModule -->
<g id="edge19" class="edge">
<title>AngularSvgIconModule&#45;&gt;AppModule</title>
<path fill="none" stroke="#000000" d="M638,-122.2228C638,-142.3652 638,-172 638,-172 638,-172 1772.138,-172 1772.138,-172"/>
<polygon fill="#000000" stroke="#000000" points="1772.138,-175.5001 1782.138,-172 1772.138,-168.5001 1772.138,-175.5001"/>
</g>
<!-- FormsModule -->
<g id="node21" class="node">
<title>FormsModule</title>
<polygon fill="#8dd3c7" stroke="#000000" points="543.8288,-122 540.8288,-126 519.8288,-126 516.8288,-122 448.1712,-122 448.1712,-86 543.8288,-86 543.8288,-122"/>
<text text-anchor="middle" x="496" y="-99.8" font-family="Times,serif" font-size="14.00" fill="#000000">FormsModule</text>
</g>
<!-- FormsModule&#45;&gt;AppModule -->
<g id="edge20" class="edge">
<title>FormsModule&#45;&gt;AppModule</title>
<path fill="none" stroke="#000000" d="M496,-122.2843C496,-143.3211 496,-175 496,-175 496,-175 1772.0622,-175 1772.0622,-175"/>
<polygon fill="#000000" stroke="#000000" points="1772.0623,-178.5001 1782.0622,-175 1772.0622,-171.5001 1772.0623,-178.5001"/>
</g>
<!-- ReactiveFormsModule -->
<g id="node22" class="node">
<title>ReactiveFormsModule</title>
<polygon fill="#8dd3c7" stroke="#000000" points="430.3047,-122 427.3047,-126 406.3047,-126 403.3047,-122 285.6953,-122 285.6953,-86 430.3047,-86 430.3047,-122"/>
<text text-anchor="middle" x="358" y="-99.8" font-family="Times,serif" font-size="14.00" fill="#000000">ReactiveFormsModule</text>
</g>
<!-- ReactiveFormsModule&#45;&gt;AppModule -->
<g id="edge21" class="edge">
<title>ReactiveFormsModule&#45;&gt;AppModule</title>
<path fill="none" stroke="#000000" d="M358,-122.2921C358,-144.2057 358,-178 358,-178 358,-178 1772.0975,-178 1772.0975,-178"/>
<polygon fill="#000000" stroke="#000000" points="1772.0976,-181.5001 1782.0975,-178 1772.0975,-174.5001 1772.0976,-181.5001"/>
</g>
<!-- DragDropModule -->
<g id="node23" class="node">
<title>DragDropModule</title>
<polygon fill="#8dd3c7" stroke="#000000" points="268.2992,-122 265.2992,-126 244.2992,-126 241.2992,-122 151.7008,-122 151.7008,-86 268.2992,-86 268.2992,-122"/>
<text text-anchor="middle" x="210" y="-99.8" font-family="Times,serif" font-size="14.00" fill="#000000">DragDropModule</text>
</g>
<!-- DragDropModule&#45;&gt;AppModule -->
<g id="edge22" class="edge">
<title>DragDropModule&#45;&gt;AppModule</title>
<path fill="none" stroke="#000000" d="M210,-122.2479C210,-145.0179 210,-181 210,-181 210,-181 1772.0711,-181 1772.0711,-181"/>
<polygon fill="#000000" stroke="#000000" points="1772.0711,-184.5001 1782.0711,-181 1772.071,-177.5001 1772.0711,-184.5001"/>
</g>
<!-- MatCardModule -->
<g id="node24" class="node">
<title>MatCardModule</title>
<polygon fill="#8dd3c7" stroke="#000000" points="133.8118,-122 130.8118,-126 109.8118,-126 106.8118,-122 24.1882,-122 24.1882,-86 133.8118,-86 133.8118,-122"/>
<text text-anchor="middle" x="79" y="-99.8" font-family="Times,serif" font-size="14.00" fill="#000000">MatCardModule</text>
</g>
<!-- MatCardModule&#45;&gt;AppModule -->
<g id="edge23" class="edge">
<title>MatCardModule&#45;&gt;AppModule</title>
<path fill="none" stroke="#000000" d="M79,-122.1532C79,-145.7566 79,-184 79,-184 79,-184 1772.1588,-184 1772.1588,-184"/>
<polygon fill="#000000" stroke="#000000" points="1772.1589,-187.5001 1782.1588,-184 1772.1588,-180.5001 1772.1589,-187.5001"/>
</g>
</g>
</svg>
