<?xml version="1.0" encoding="UTF-8" standalone="no"?>
<!DOCTYPE svg PUBLIC "-//W3C//DTD SVG 1.1//EN"
 "http://www.w3.org/Graphics/SVG/1.1/DTD/svg11.dtd">
<!-- Generated by graphviz version 2.40.1 (20161225.0304)
 -->
<!-- Title: dependencies Pages: 1 -->
<svg width="3825pt" height="290pt"
 viewBox="0.00 0.00 3825.00 290.00" xmlns="http://www.w3.org/2000/svg" xmlns:xlink="http://www.w3.org/1999/xlink">
<g id="graph0" class="graph" transform="scale(1 1) rotate(0) translate(4 286)">
<title>dependencies</title>
<polygon fill="#ffffff" stroke="transparent" points="-4,4 -4,-286 3821,-286 3821,4 -4,4"/>
<text text-anchor="start" x="1887.5091" y="-42.4" font-family="sans-serif" font-weight="bold" font-size="14.00" fill="#000000">Legend</text>
<polygon fill="#ffffb3" stroke="transparent" points="1674.5,-10 1674.5,-30 1694.5,-30 1694.5,-10 1674.5,-10"/>
<text text-anchor="start" x="1698.129" y="-15.4" font-family="sans-serif" font-size="14.00" fill="#000000"> &#160;Declarations</text>
<polygon fill="#8dd3c7" stroke="transparent" points="1787.5,-10 1787.5,-30 1807.5,-30 1807.5,-10 1787.5,-10"/>
<text text-anchor="start" x="1811.2251" y="-15.4" font-family="sans-serif" font-size="14.00" fill="#000000"> &#160;Module</text>
<polygon fill="#80b1d3" stroke="transparent" points="1873.5,-10 1873.5,-30 1893.5,-30 1893.5,-10 1873.5,-10"/>
<text text-anchor="start" x="1897.2812" y="-15.4" font-family="sans-serif" font-size="14.00" fill="#000000"> &#160;Bootstrap</text>
<polygon fill="#fdb462" stroke="transparent" points="1970.5,-10 1970.5,-30 1990.5,-30 1990.5,-10 1970.5,-10"/>
<text text-anchor="start" x="1994.1732" y="-15.4" font-family="sans-serif" font-size="14.00" fill="#000000"> &#160;Providers</text>
<polygon fill="#fb8072" stroke="transparent" points="2066.5,-10 2066.5,-30 2086.5,-30 2086.5,-10 2066.5,-10"/>
<text text-anchor="start" x="2090.2258" y="-15.4" font-family="sans-serif" font-size="14.00" fill="#000000"> &#160;Exports</text>
<g id="clust1" class="cluster">
<title>cluster_AppModule</title>
<polygon fill="none" stroke="#000000" stroke-dasharray="1,5" points="8,-70 8,-274 3465,-274 3465,-70 8,-70"/>
</g>
<g id="clust2" class="cluster">
<title>cluster_AppModule_declarations</title>
<polygon fill="none" stroke="#000000" points="16,-78 16,-130 1719,-130 1719,-78 16,-78"/>
</g>
<g id="clust15" class="cluster">
<title>cluster_AppModule_imports</title>
<polygon fill="none" stroke="#000000" points="1727,-78 1727,-130 3457,-130 3457,-78 1727,-78"/>
</g>
<g id="clust17" class="cluster">
<title>cluster_AppModule_bootstrap</title>
<polygon fill="none" stroke="#000000" points="1596,-214 1596,-266 1720,-266 1720,-214 1596,-214"/>
</g>
<g id="clust19" class="cluster">
<title>cluster_AppRoutingModule</title>
<polygon fill="none" stroke="#000000" stroke-dasharray="1,5" points="3473,-138 3473,-206 3809,-206 3809,-138 3473,-138"/>
</g>
<g id="clust21" class="cluster">
<title>cluster_AppRoutingModule_imports</title>
<polygon fill="none" stroke="#000000" points="3607,-146 3607,-198 3801,-198 3801,-146 3607,-146"/>
</g>
<g id="clust22" class="cluster">
<title>cluster_AppRoutingModule_exports</title>
<polygon fill="none" stroke="#000000" points="3481,-146 3481,-198 3599,-198 3599,-146 3481,-146"/>
</g>
<!-- AppComponent -->
<g id="node1" class="node">
<title>AppComponent</title>
<polygon fill="#ffffb3" stroke="#000000" points="1710.9399,-122 1605.0601,-122 1605.0601,-86 1710.9399,-86 1710.9399,-122"/>
<text text-anchor="middle" x="1658" y="-99.8" font-family="Times,serif" font-size="14.00" fill="#000000">AppComponent</text>
</g>
<!-- AppModule -->
<g id="node13" class="node">
<title>AppModule</title>
<polygon fill="#8dd3c7" stroke="#000000" points="1699.6571,-190 1696.6571,-194 1675.6571,-194 1672.6571,-190 1616.3429,-190 1616.3429,-154 1699.6571,-154 1699.6571,-190"/>
<text text-anchor="middle" x="1658" y="-167.8" font-family="Times,serif" font-size="14.00" fill="#000000">AppModule</text>
</g>
<!-- AppComponent&#45;&gt;AppModule -->
<g id="edge1" class="edge">
<title>AppComponent&#45;&gt;AppModule</title>
<path fill="none" stroke="#000000" d="M1658,-122.2228C1658,-122.2228 1658,-143.7269 1658,-143.7269"/>
<polygon fill="#000000" stroke="#000000" points="1654.5001,-143.7269 1658,-153.7269 1661.5001,-143.727 1654.5001,-143.7269"/>
</g>
<!-- FlagsComponent -->
<g id="node2" class="node">
<title>FlagsComponent</title>
<polygon fill="#ffffb3" stroke="#000000" points="1586.6653,-122 1475.3347,-122 1475.3347,-86 1586.6653,-86 1586.6653,-122"/>
<text text-anchor="middle" x="1531" y="-99.8" font-family="Times,serif" font-size="14.00" fill="#000000">FlagsComponent</text>
</g>
<!-- FlagsComponent&#45;&gt;AppModule -->
<g id="edge2" class="edge">
<title>FlagsComponent&#45;&gt;AppModule</title>
<path fill="none" stroke="#000000" d="M1531,-122.2396C1531,-137.5706 1531,-157 1531,-157 1531,-157 1606.0635,-157 1606.0635,-157"/>
<polygon fill="#000000" stroke="#000000" points="1606.0635,-160.5001 1616.0635,-157 1606.0634,-153.5001 1606.0635,-160.5001"/>
</g>
<!-- EntryLogsComponent -->
<g id="node3" class="node">
<title>EntryLogsComponent</title>
<polygon fill="#ffffb3" stroke="#000000" points="1457.4341,-122 1316.5659,-122 1316.5659,-86 1457.4341,-86 1457.4341,-122"/>
<text text-anchor="middle" x="1387" y="-99.8" font-family="Times,serif" font-size="14.00" fill="#000000">EntryLogsComponent</text>
</g>
<!-- EntryLogsComponent&#45;&gt;AppModule -->
<g id="edge3" class="edge">
<title>EntryLogsComponent&#45;&gt;AppModule</title>
<path fill="none" stroke="#000000" d="M1387,-122.027C1387,-138.3976 1387,-160 1387,-160 1387,-160 1606.2502,-160 1606.2502,-160"/>
<polygon fill="#000000" stroke="#000000" points="1606.2502,-163.5001 1616.2502,-160 1606.2501,-156.5001 1606.2502,-163.5001"/>
</g>
<!-- EntriesComponent -->
<g id="node4" class="node">
<title>EntriesComponent</title>
<polygon fill="#ffffb3" stroke="#000000" points="1298.486,-122 1177.514,-122 1177.514,-86 1298.486,-86 1298.486,-122"/>
<text text-anchor="middle" x="1238" y="-99.8" font-family="Times,serif" font-size="14.00" fill="#000000">EntriesComponent</text>
</g>
<!-- EntriesComponent&#45;&gt;AppModule -->
<g id="edge4" class="edge">
<title>EntriesComponent&#45;&gt;AppModule</title>
<path fill="none" stroke="#000000" d="M1238,-122.0225C1238,-139.3734 1238,-163 1238,-163 1238,-163 1606.1933,-163 1606.1933,-163"/>
<polygon fill="#000000" stroke="#000000" points="1606.1933,-166.5001 1616.1933,-163 1606.1933,-159.5001 1606.1933,-166.5001"/>
</g>
<!-- NavbarComponent -->
<g id="node5" class="node">
<title>NavbarComponent</title>
<polygon fill="#ffffb3" stroke="#000000" points="1159.0297,-122 1036.9703,-122 1036.9703,-86 1159.0297,-86 1159.0297,-122"/>
<text text-anchor="middle" x="1098" y="-99.8" font-family="Times,serif" font-size="14.00" fill="#000000">NavbarComponent</text>
</g>
<!-- NavbarComponent&#45;&gt;AppModule -->
<g id="edge5" class="edge">
<title>NavbarComponent&#45;&gt;AppModule</title>
<path fill="none" stroke="#000000" d="M1098,-122.2667C1098,-140.5552 1098,-166 1098,-166 1098,-166 1605.909,-166 1605.909,-166"/>
<polygon fill="#000000" stroke="#000000" points="1605.909,-169.5001 1615.909,-166 1605.9089,-162.5001 1605.909,-169.5001"/>
</g>
<!-- InstructionsComponent -->
<g id="node6" class="node">
<title>InstructionsComponent</title>
<polygon fill="#ffffb3" stroke="#000000" points="1018.9298,-122 871.0702,-122 871.0702,-86 1018.9298,-86 1018.9298,-122"/>
<text text-anchor="middle" x="945" y="-99.8" font-family="Times,serif" font-size="14.00" fill="#000000">InstructionsComponent</text>
</g>
<!-- InstructionsComponent&#45;&gt;AppModule -->
<g id="edge6" class="edge">
<title>InstructionsComponent&#45;&gt;AppModule</title>
<path fill="none" stroke="#000000" d="M945,-122.1061C945,-141.3391 945,-169 945,-169 945,-169 1606.3227,-169 1606.3227,-169"/>
<polygon fill="#000000" stroke="#000000" points="1606.3228,-172.5001 1616.3227,-169 1606.3227,-165.5001 1606.3228,-172.5001"/>
</g>
<!-- SelectionComponent -->
<g id="node7" class="node">
<title>SelectionComponent</title>
<polygon fill="#ffffb3" stroke="#000000" points="853.9313,-122 720.0687,-122 720.0687,-86 853.9313,-86 853.9313,-122"/>
<text text-anchor="middle" x="787" y="-99.8" font-family="Times,serif" font-size="14.00" fill="#000000">SelectionComponent</text>
</g>
<!-- SelectionComponent&#45;&gt;AppModule -->
<g id="edge7" class="edge">
<title>SelectionComponent&#45;&gt;AppModule</title>
<path fill="none" stroke="#000000" d="M787,-122.2228C787,-142.3652 787,-172 787,-172 787,-172 1606.2833,-172 1606.2833,-172"/>
<polygon fill="#000000" stroke="#000000" points="1606.2833,-175.5001 1616.2833,-172 1606.2833,-168.5001 1606.2833,-175.5001"/>
</g>
<!-- ExitLogsComponent -->
<g id="node8" class="node">
<title>ExitLogsComponent</title>
<polygon fill="#ffffb3" stroke="#000000" points="702.1638,-122 569.8362,-122 569.8362,-86 702.1638,-86 702.1638,-122"/>
<text text-anchor="middle" x="636" y="-99.8" font-family="Times,serif" font-size="14.00" fill="#000000">ExitLogsComponent</text>
</g>
<!-- ExitLogsComponent&#45;&gt;AppModule -->
<g id="edge8" class="edge">
<title>ExitLogsComponent&#45;&gt;AppModule</title>
<path fill="none" stroke="#000000" d="M636,-122.2843C636,-143.3211 636,-175 636,-175 636,-175 1606.0311,-175 1606.0311,-175"/>
<polygon fill="#000000" stroke="#000000" points="1606.0311,-178.5001 1616.0311,-175 1606.031,-171.5001 1606.0311,-178.5001"/>
</g>
<!-- ExitiesComponent -->
<g id="node9" class="node">
<title>ExitiesComponent</title>
<polygon fill="#ffffb3" stroke="#000000" points="552.2162,-122 431.7838,-122 431.7838,-86 552.2162,-86 552.2162,-122"/>
<text text-anchor="middle" x="492" y="-99.8" font-family="Times,serif" font-size="14.00" fill="#000000">ExitiesComponent</text>
</g>
<!-- ExitiesComponent&#45;&gt;AppModule -->
<g id="edge9" class="edge">
<title>ExitiesComponent&#45;&gt;AppModule</title>
<path fill="none" stroke="#000000" d="M492,-122.2921C492,-144.2057 492,-178 492,-178 492,-178 1606.1577,-178 1606.1577,-178"/>
<polygon fill="#000000" stroke="#000000" points="1606.1577,-181.5001 1616.1577,-178 1606.1576,-174.5001 1606.1577,-181.5001"/>
</g>
<!-- QuizComponent -->
<g id="node10" class="node">
<title>QuizComponent</title>
<polygon fill="#ffffb3" stroke="#000000" points="414.0452,-122 305.9548,-122 305.9548,-86 414.0452,-86 414.0452,-122"/>
<text text-anchor="middle" x="360" y="-99.8" font-family="Times,serif" font-size="14.00" fill="#000000">QuizComponent</text>
</g>
<!-- QuizComponent&#45;&gt;AppModule -->
<g id="edge10" class="edge">
<title>QuizComponent&#45;&gt;AppModule</title>
<path fill="none" stroke="#000000" d="M360,-122.2479C360,-145.0179 360,-181 360,-181 360,-181 1606.2833,-181 1606.2833,-181"/>
<polygon fill="#000000" stroke="#000000" points="1606.2834,-184.5001 1616.2833,-181 1606.2833,-177.5001 1606.2834,-184.5001"/>
</g>
<!-- NgdragComponent -->
<g id="node11" class="node">
<title>NgdragComponent</title>
<polygon fill="#ffffb3" stroke="#000000" points="287.8146,-122 164.1854,-122 164.1854,-86 287.8146,-86 287.8146,-122"/>
<text text-anchor="middle" x="226" y="-99.8" font-family="Times,serif" font-size="14.00" fill="#000000">NgdragComponent</text>
</g>
<!-- NgdragComponent&#45;&gt;AppModule -->
<g id="edge11" class="edge">
<title>NgdragComponent&#45;&gt;AppModule</title>
<path fill="none" stroke="#000000" d="M226,-122.1532C226,-145.7566 226,-184 226,-184 226,-184 1606.3037,-184 1606.3037,-184"/>
<polygon fill="#000000" stroke="#000000" points="1606.3038,-187.5001 1616.3037,-184 1606.3037,-180.5001 1606.3038,-187.5001"/>
</g>
<!-- UnidocComponent -->
<g id="node12" class="node">
<title>UnidocComponent</title>
<polygon fill="#ffffb3" stroke="#000000" points="146.045,-122 23.955,-122 23.955,-86 146.045,-86 146.045,-122"/>
<text text-anchor="middle" x="85" y="-99.8" font-family="Times,serif" font-size="14.00" fill="#000000">UnidocComponent</text>
</g>
<!-- UnidocComponent&#45;&gt;AppModule -->
<g id="edge12" class="edge">
<title>UnidocComponent&#45;&gt;AppModule</title>
<path fill="none" stroke="#000000" d="M85,-122.0098C85,-146.4207 85,-187 85,-187 85,-187 1606.3312,-187 1606.3312,-187"/>
<polygon fill="#000000" stroke="#000000" points="1606.3313,-190.5001 1616.3312,-187 1606.3312,-183.5001 1606.3313,-190.5001"/>
</g>
<!-- AppComponent  -->
<g id="node25" class="node">
<title>AppComponent </title>
<polygon fill="#80b1d3" stroke="#000000" points="1712.439,-258 1603.561,-258 1603.561,-222 1712.439,-222 1712.439,-258"/>
<text text-anchor="middle" x="1658" y="-235.8" font-family="Times,serif" font-size="14.00" fill="#000000">AppComponent </text>
</g>
<!-- AppModule&#45;&gt;AppComponent  -->
<g id="edge24" class="edge">
<title>AppModule&#45;&gt;AppComponent </title>
<path fill="none" stroke="#000000" stroke-dasharray="1,5" d="M1658,-190.2228C1658,-190.2228 1658,-211.7269 1658,-211.7269"/>
<polygon fill="#000000" stroke="#000000" points="1654.5001,-211.7269 1658,-221.7269 1661.5001,-211.727 1654.5001,-211.7269"/>
</g>
<!-- BrowserModule -->
<g id="node14" class="node">
<title>BrowserModule</title>
<polygon fill="#8dd3c7" stroke="#000000" points="3302.4734,-122 3299.4734,-126 3278.4734,-126 3275.4734,-122 3195.5266,-122 3195.5266,-86 3302.4734,-86 3302.4734,-122"/>
<text text-anchor="middle" x="3249" y="-99.8" font-family="Times,serif" font-size="14.00" fill="#000000">BrowserModule</text>
</g>
<!-- BrowserModule&#45;&gt;AppModule -->
<g id="edge13" class="edge">
<title>BrowserModule&#45;&gt;AppModule</title>
<path fill="none" stroke="#000000" d="M3249,-122.1532C3249,-145.7566 3249,-184 3249,-184 3249,-184 1709.7376,-184 1709.7376,-184"/>
<polygon fill="#000000" stroke="#000000" points="1709.7376,-180.5001 1699.7376,-184 1709.7376,-187.5001 1709.7376,-180.5001"/>
</g>
<!-- AppRoutingModule -->
<g id="node15" class="node">
<title>AppRoutingModule</title>
<polygon fill="#8dd3c7" stroke="#000000" points="3449.2744,-122 3446.2744,-126 3425.2744,-126 3422.2744,-122 3320.7256,-122 3320.7256,-86 3449.2744,-86 3449.2744,-122"/>
<text text-anchor="middle" x="3385" y="-99.8" font-family="Times,serif" font-size="14.00" fill="#000000">AppRoutingModule</text>
</g>
<!-- AppRoutingModule&#45;&gt;AppModule -->
<g id="edge14" class="edge">
<title>AppRoutingModule&#45;&gt;AppModule</title>
<path fill="none" stroke="#000000" d="M3385,-122.0098C3385,-146.4207 3385,-187 3385,-187 3385,-187 1709.8344,-187 1709.8344,-187"/>
<polygon fill="#000000" stroke="#000000" points="1709.8344,-183.5001 1699.8344,-187 1709.8344,-190.5001 1709.8344,-183.5001"/>
</g>
<!-- RouterModule  -->
<g id="node27" class="node">
<title>RouterModule </title>
<polygon fill="#fb8072" stroke="#000000" points="3590.6523,-190 3489.3477,-190 3489.3477,-154 3590.6523,-154 3590.6523,-190"/>
<text text-anchor="middle" x="3540" y="-167.8" font-family="Times,serif" font-size="14.00" fill="#000000">RouterModule </text>
</g>
<!-- AppRoutingModule&#45;&gt;RouterModule  -->
<g id="edge26" class="edge">
<title>AppRoutingModule&#45;&gt;RouterModule </title>
<path fill="none" stroke="#000000" stroke-dasharray="5,2" d="M3449.3874,-110C3491.9734,-110 3540,-110 3540,-110 3540,-110 3540,-143.7333 3540,-143.7333"/>
<polygon fill="#000000" stroke="#000000" points="3536.5001,-143.7333 3540,-153.7333 3543.5001,-143.7333 3536.5001,-143.7333"/>
</g>
<!-- AngularFireModule.initializeApp(args) -->
<g id="node16" class="node">
<title>AngularFireModule.initializeApp(args)</title>
<polygon fill="#8dd3c7" stroke="#000000" points="3050.7057,-122 3047.7057,-126 3026.7057,-126 3023.7057,-122 2813.2943,-122 2813.2943,-86 3050.7057,-86 3050.7057,-122"/>
<text text-anchor="middle" x="2932" y="-99.8" font-family="Times,serif" font-size="14.00" fill="#000000">AngularFireModule.initializeApp(args)</text>
</g>
<!-- AngularFireModule.initializeApp(args)&#45;&gt;AppModule -->
<g id="edge15" class="edge">
<title>AngularFireModule.initializeApp(args)&#45;&gt;AppModule</title>
<path fill="none" stroke="#000000" d="M2932,-122.2921C2932,-144.2057 2932,-178 2932,-178 2932,-178 1709.6639,-178 1709.6639,-178"/>
<polygon fill="#000000" stroke="#000000" points="1709.664,-174.5001 1699.6639,-178 1709.6639,-181.5001 1709.664,-174.5001"/>
</g>
<!-- AngularFirestoreModule -->
<g id="node17" class="node">
<title>AngularFirestoreModule</title>
<polygon fill="#8dd3c7" stroke="#000000" points="2795.6811,-122 2792.6811,-126 2771.6811,-126 2768.6811,-122 2640.3189,-122 2640.3189,-86 2795.6811,-86 2795.6811,-122"/>
<text text-anchor="middle" x="2718" y="-99.8" font-family="Times,serif" font-size="14.00" fill="#000000">AngularFirestoreModule</text>
</g>
<!-- AngularFirestoreModule&#45;&gt;AppModule -->
<g id="edge16" class="edge">
<title>AngularFirestoreModule&#45;&gt;AppModule</title>
<path fill="none" stroke="#000000" d="M2718,-122.2843C2718,-143.3211 2718,-175 2718,-175 2718,-175 1709.8797,-175 1709.8797,-175"/>
<polygon fill="#000000" stroke="#000000" points="1709.8798,-171.5001 1699.8797,-175 1709.8797,-178.5001 1709.8798,-171.5001"/>
</g>
<!-- AngularFireStorageModule -->
<g id="node18" class="node">
<title>AngularFireStorageModule</title>
<polygon fill="#8dd3c7" stroke="#000000" points="2622.2338,-122 2619.2338,-126 2598.2338,-126 2595.2338,-122 2451.7662,-122 2451.7662,-86 2622.2338,-86 2622.2338,-122"/>
<text text-anchor="middle" x="2537" y="-99.8" font-family="Times,serif" font-size="14.00" fill="#000000">AngularFireStorageModule</text>
</g>
<!-- AngularFireStorageModule&#45;&gt;AppModule -->
<g id="edge17" class="edge">
<title>AngularFireStorageModule&#45;&gt;AppModule</title>
<path fill="none" stroke="#000000" d="M2537,-122.2228C2537,-142.3652 2537,-172 2537,-172 2537,-172 1709.8047,-172 1709.8047,-172"/>
<polygon fill="#000000" stroke="#000000" points="1709.8047,-168.5001 1699.8047,-172 1709.8046,-175.5001 1709.8047,-168.5001"/>
</g>
<!-- HttpClientModule -->
<g id="node19" class="node">
<title>HttpClientModule</title>
<polygon fill="#8dd3c7" stroke="#000000" points="2433.1611,-122 2430.1611,-126 2409.1611,-126 2406.1611,-122 2314.8389,-122 2314.8389,-86 2433.1611,-86 2433.1611,-122"/>
<text text-anchor="middle" x="2374" y="-99.8" font-family="Times,serif" font-size="14.00" fill="#000000">HttpClientModule</text>
</g>
<!-- HttpClientModule&#45;&gt;AppModule -->
<g id="edge18" class="edge">
<title>HttpClientModule&#45;&gt;AppModule</title>
<path fill="none" stroke="#000000" d="M2374,-122.1061C2374,-141.3391 2374,-169 2374,-169 2374,-169 1709.8526,-169 1709.8526,-169"/>
<polygon fill="#000000" stroke="#000000" points="1709.8527,-165.5001 1699.8526,-169 1709.8526,-172.5001 1709.8527,-165.5001"/>
</g>
<!-- AngularSvgIconModule -->
<g id="node20" class="node">
<title>AngularSvgIconModule</title>
<polygon fill="#8dd3c7" stroke="#000000" points="2297.08,-122 2294.08,-126 2273.08,-126 2270.08,-122 2144.92,-122 2144.92,-86 2297.08,-86 2297.08,-122"/>
<text text-anchor="middle" x="2221" y="-99.8" font-family="Times,serif" font-size="14.00" fill="#000000">AngularSvgIconModule</text>
</g>
<!-- AngularSvgIconModule&#45;&gt;AppModule -->
<g id="edge19" class="edge">
<title>AngularSvgIconModule&#45;&gt;AppModule</title>
<path fill="none" stroke="#000000" d="M2221,-122.2667C2221,-140.5552 2221,-166 2221,-166 2221,-166 1709.8565,-166 1709.8565,-166"/>
<polygon fill="#000000" stroke="#000000" points="1709.8566,-162.5001 1699.8565,-166 1709.8565,-169.5001 1709.8566,-162.5001"/>
</g>
<!-- FormsModule -->
<g id="node21" class="node">
<title>FormsModule</title>
<polygon fill="#8dd3c7" stroke="#000000" points="2126.8288,-122 2123.8288,-126 2102.8288,-126 2099.8288,-122 2031.1712,-122 2031.1712,-86 2126.8288,-86 2126.8288,-122"/>
<text text-anchor="middle" x="2079" y="-99.8" font-family="Times,serif" font-size="14.00" fill="#000000">FormsModule</text>
</g>
<!-- FormsModule&#45;&gt;AppModule -->
<g id="edge20" class="edge">
<title>FormsModule&#45;&gt;AppModule</title>
<path fill="none" stroke="#000000" d="M2079,-122.0225C2079,-139.3734 2079,-163 2079,-163 2079,-163 1709.9062,-163 1709.9062,-163"/>
<polygon fill="#000000" stroke="#000000" points="1709.9063,-159.5001 1699.9062,-163 1709.9062,-166.5001 1709.9063,-159.5001"/>
</g>
<!-- ReactiveFormsModule -->
<g id="node22" class="node">
<title>ReactiveFormsModule</title>
<polygon fill="#8dd3c7" stroke="#000000" points="2013.3047,-122 2010.3047,-126 1989.3047,-126 1986.3047,-122 1868.6953,-122 1868.6953,-86 2013.3047,-86 2013.3047,-122"/>
<text text-anchor="middle" x="1941" y="-99.8" font-family="Times,serif" font-size="14.00" fill="#000000">ReactiveFormsModule</text>
</g>
<!-- ReactiveFormsModule&#45;&gt;AppModule -->
<g id="edge21" class="edge">
<title>ReactiveFormsModule&#45;&gt;AppModule</title>
<path fill="none" stroke="#000000" d="M1941,-122.027C1941,-138.3976 1941,-160 1941,-160 1941,-160 1709.7576,-160 1709.7576,-160"/>
<polygon fill="#000000" stroke="#000000" points="1709.7577,-156.5001 1699.7576,-160 1709.7576,-163.5001 1709.7577,-156.5001"/>
</g>
<!-- DragDropModule -->
<g id="node23" class="node">
<title>DragDropModule</title>
<polygon fill="#8dd3c7" stroke="#000000" points="1851.2992,-122 1848.2992,-126 1827.2992,-126 1824.2992,-122 1734.7008,-122 1734.7008,-86 1851.2992,-86 1851.2992,-122"/>
<text text-anchor="middle" x="1793" y="-99.8" font-family="Times,serif" font-size="14.00" fill="#000000">DragDropModule</text>
</g>
<!-- DragDropModule&#45;&gt;AppModule -->
<g id="edge22" class="edge">
<title>DragDropModule&#45;&gt;AppModule</title>
<path fill="none" stroke="#000000" d="M1793,-122.2396C1793,-137.5706 1793,-157 1793,-157 1793,-157 1709.9748,-157 1709.9748,-157"/>
<polygon fill="#000000" stroke="#000000" points="1709.9749,-153.5001 1699.9748,-157 1709.9748,-160.5001 1709.9749,-153.5001"/>
</g>
<!-- MatCardModule -->
<g id="node24" class="node">
<title>MatCardModule</title>
<polygon fill="#8dd3c7" stroke="#000000" points="3177.8118,-122 3174.8118,-126 3153.8118,-126 3150.8118,-122 3068.1882,-122 3068.1882,-86 3177.8118,-86 3177.8118,-122"/>
<text text-anchor="middle" x="3123" y="-99.8" font-family="Times,serif" font-size="14.00" fill="#000000">MatCardModule</text>
</g>
<!-- MatCardModule&#45;&gt;AppModule -->
<g id="edge23" class="edge">
<title>MatCardModule&#45;&gt;AppModule</title>
<path fill="none" stroke="#000000" d="M3123,-122.2479C3123,-145.0179 3123,-181 3123,-181 3123,-181 1709.8739,-181 1709.8739,-181"/>
<polygon fill="#000000" stroke="#000000" points="1709.8739,-177.5001 1699.8739,-181 1709.8738,-184.5001 1709.8739,-177.5001"/>
</g>
<!-- RouterModule.forRoot(args) -->
<g id="node26" class="node">
<title>RouterModule.forRoot(args)</title>
<polygon fill="#8dd3c7" stroke="#000000" points="3792.8419,-190 3789.8419,-194 3768.8419,-194 3765.8419,-190 3615.1581,-190 3615.1581,-154 3792.8419,-154 3792.8419,-190"/>
<text text-anchor="middle" x="3704" y="-167.8" font-family="Times,serif" font-size="14.00" fill="#000000">RouterModule.forRoot(args)</text>
</g>
<!-- RouterModule.forRoot(args)&#45;&gt;AppRoutingModule -->
<g id="edge25" class="edge">
<title>RouterModule.forRoot(args)&#45;&gt;AppRoutingModule</title>
<path fill="none" stroke="#000000" d="M3704,-153.7079C3704,-131.7943 3704,-98 3704,-98 3704,-98 3459.5544,-98 3459.5544,-98"/>
<polygon fill="#000000" stroke="#000000" points="3459.5544,-94.5001 3449.5544,-98 3459.5544,-101.5001 3459.5544,-94.5001"/>
</g>
</g>
</svg>
